<svg width="190" height="190" viewBox="0 0 190 190" fill="none" xmlns="http://www.w3.org/2000/svg">
<g filter="url(#filter0_d)">
<circle cx="95" cy="83" r="65" fill="white"/>
</g>
<g opacity="0.1" filter="url(#filter1_d)">
<circle cx="95" cy="83" r="57" fill="#34B2FF"/>
</g>
<path d="M102.296 106.928V108.798C102.296 110.286 101.203 111.523 99.7807 111.734L99.3198 113.433C99.0696 114.355 98.24 115 97.2787 115H92.7091C91.7478 115 90.9182 114.355 90.668 113.433L90.2202 111.734C88.7848 111.51 87.6918 110.286 87.6918 108.784V106.914C87.6918 105.914 88.4951 105.11 89.4959 105.11H100.492C101.493 105.123 102.296 105.927 102.296 106.928ZM110.763 81.7226C110.763 85.9761 109.078 89.8346 106.339 92.6658C104.258 94.8255 102.915 97.5778 102.467 100.514C102.27 101.779 101.177 102.714 99.8861 102.714H90.1017C88.8243 102.714 87.7182 101.792 87.5338 100.528C87.0729 97.5909 85.7165 94.7992 83.6359 92.6527C80.9494 89.8609 79.277 86.0683 79.2375 81.8938C79.1453 73.1235 86.1248 66.0255 94.8951 65.9597C103.652 65.8938 110.763 72.9786 110.763 81.7226ZM96.7783 72.1753C96.7783 71.2008 95.9881 70.3975 95.0005 70.3975C88.7322 70.3975 83.6227 75.4938 83.6227 81.7753C83.6227 82.7498 84.4128 83.5531 85.4005 83.5531C86.375 83.5531 87.1783 82.763 87.1783 81.7753C87.1783 77.456 90.6943 73.9531 95.0005 73.9531C95.9881 73.9531 96.7783 73.163 96.7783 72.1753ZM95.0005 60.7844C95.975 60.7844 96.7783 59.9942 96.7783 59.0066V52.7778C96.7783 51.8033 95.9881 51 95.0005 51C94.0128 51 93.2227 51.7901 93.2227 52.7778V59.0066C93.2227 59.9942 94.026 60.7844 95.0005 60.7844ZM74.0754 81.7095C74.0754 80.735 73.2853 79.9317 72.2976 79.9317H66.0688C65.0943 79.9317 64.291 80.7218 64.291 81.7095C64.291 82.6839 65.0811 83.4872 66.0688 83.4872H72.2976C73.2853 83.4872 74.0754 82.6971 74.0754 81.7095ZM123.932 79.9317H117.703C116.729 79.9317 115.926 80.7218 115.926 81.7095C115.926 82.6839 116.716 83.4872 117.703 83.4872H123.932C124.907 83.4872 125.71 82.6971 125.71 81.7095C125.71 80.735 124.92 79.9317 123.932 79.9317ZM77.6968 96.5111L73.2853 100.923C72.5873 101.621 72.5873 102.74 73.2853 103.438C73.6276 103.78 74.0885 103.951 74.5363 103.951C74.984 103.951 75.4449 103.78 75.7873 103.438L80.1988 99.0263C80.8968 98.3284 80.8968 97.2091 80.1988 96.5111C79.5141 95.8132 78.3815 95.8132 77.6968 96.5111ZM111.053 67.4346C111.501 67.4346 111.962 67.2634 112.304 66.921L116.716 62.5095C117.414 61.8115 117.414 60.6922 116.716 59.9942C116.018 59.2963 114.898 59.2963 114.2 59.9942L109.789 64.4058C109.091 65.1037 109.091 66.223 109.789 66.921C110.145 67.2634 110.592 67.4346 111.053 67.4346ZM77.6968 66.9078C78.0392 67.2502 78.5001 67.4214 78.9478 67.4214C79.3955 67.4214 79.8564 67.2502 80.1988 66.9078C80.8968 66.2099 80.8968 65.0905 80.1988 64.3926L75.7873 59.9811C75.0894 59.2831 73.97 59.2831 73.2721 59.9811C72.5741 60.679 72.5741 61.7984 73.2721 62.4963L77.6968 66.9078ZM112.304 96.5111C111.606 95.8132 110.487 95.8132 109.789 96.5111C109.091 97.2091 109.091 98.3284 109.789 99.0263L114.2 103.438C114.543 103.78 115.004 103.951 115.452 103.951C115.899 103.951 116.36 103.78 116.703 103.438C117.4 102.74 117.4 101.621 116.703 100.923L112.304 96.5111Z" fill="#34B2FF"/>
<defs>
<filter id="filter0_d" x="0" y="0" width="190" height="190" filterUnits="userSpaceOnUse" color-interpolation-filters="sRGB">
<feFlood flood-opacity="0" result="BackgroundImageFix"/>
<feColorMatrix in="SourceAlpha" type="matrix" values="0 0 0 0 0 0 0 0 0 0 0 0 0 0 0 0 0 0 127 0"/>
<feOffset dy="12"/>
<feGaussianBlur stdDeviation="15"/>
<feColorMatrix type="matrix" values="0 0 0 0 0 0 0 0 0 0 0 0 0 0 0 0 0 0 0.08 0"/>
<feBlend mode="normal" in2="BackgroundImageFix" result="effect1_dropShadow"/>
<feBlend mode="normal" in="SourceGraphic" in2="effect1_dropShadow" result="shape"/>
</filter>
<filter id="filter1_d" x="8" y="0" width="174" height="174" filterUnits="userSpaceOnUse" color-interpolation-filters="sRGB">
<feFlood flood-opacity="0" result="BackgroundImageFix"/>
<feColorMatrix in="SourceAlpha" type="matrix" values="0 0 0 0 0 0 0 0 0 0 0 0 0 0 0 0 0 0 127 0"/>
<feOffset dy="4"/>
<feGaussianBlur stdDeviation="15"/>
<feColorMatrix type="matrix" values="0 0 0 0 0 0 0 0 0 0 0 0 0 0 0 0 0 0 0.06 0"/>
<feBlend mode="normal" in2="BackgroundImageFix" result="effect1_dropShadow"/>
<feBlend mode="normal" in="SourceGraphic" in2="effect1_dropShadow" result="shape"/>
</filter>
</defs>
</svg>
