<svg width="26" height="26" viewBox="0 0 26 26" fill="none" xmlns="http://www.w3.org/2000/svg">
<path d="M25.995 0.49072C25.9911 0.460757 25.9865 0.431924 25.9775 0.402527C25.9679 0.370302 25.9549 0.340905 25.9402 0.310942C25.9323 0.294547 25.9294 0.277021 25.9198 0.261192C25.9136 0.251016 25.9034 0.244231 25.8961 0.234621C25.8774 0.208615 25.8554 0.186001 25.8322 0.162822C25.809 0.139643 25.7858 0.118161 25.7593 0.0995043C25.7497 0.0927202 25.7434 0.0831094 25.7338 0.077456C25.718 0.0678452 25.7005 0.0655839 25.6841 0.0576691C25.653 0.0424049 25.6224 0.0294021 25.5897 0.0197913C25.562 0.0124419 25.5348 0.0084845 25.5066 0.00509246C25.4732 0.00113508 25.441 -0.00112628 25.4076 0.000569737C25.3765 0.00226576 25.3466 0.0084845 25.316 0.0158339C25.2968 0.0203567 25.277 0.0186606 25.2578 0.0254447L0.382838 8.50555C0.157833 8.58131 0.00462576 8.79105 0.000103038 9.02906C-0.00441968 9.26706 0.140307 9.48246 0.363051 9.56783L11.9848 14.0334L17.0067 25.6591C17.0966 25.8666 17.3012 26 17.5257 26C17.5353 26 17.5443 26 17.5539 25.9994C17.7897 25.9876 17.9926 25.831 18.0644 25.6065L25.9792 0.731555C25.9848 0.714029 25.9831 0.695938 25.9865 0.677848C25.9933 0.646188 25.9984 0.61566 25.9995 0.583436C26.0007 0.551777 25.999 0.521814 25.995 0.49072ZM2.22415 9.07146L23.3209 1.8792L12.2691 12.931L2.22415 9.07146ZM17.4448 23.8229L13.0804 13.7191L24.1967 2.60227L17.4448 23.8229Z" fill="white"/>
<path d="M8.87994 17.1199C8.65889 16.8988 8.3016 16.8988 8.08055 17.1199L0.165786 25.0347C-0.055262 25.2557 -0.055262 25.613 0.165786 25.834C0.276027 25.9443 0.420755 25.9997 0.565482 25.9997C0.710209 25.9997 0.854936 25.9443 0.965177 25.834L8.87994 17.9193C9.10099 17.6982 9.10099 17.3409 8.87994 17.1199Z" fill="white"/>
<path d="M10.3419 21.0779L6.38454 25.0353C6.16349 25.2563 6.16349 25.6136 6.38454 25.8347C6.49478 25.9449 6.6395 26.0003 6.78423 26.0003C6.92896 26.0003 7.07369 25.9449 7.18393 25.8347L11.1413 21.8773C11.3624 21.6562 11.3624 21.2989 11.1413 21.0779C10.9203 20.8568 10.563 20.8568 10.3419 21.0779Z" fill="white"/>
<path d="M0.565482 19.7816C0.710209 19.7816 0.854936 19.7262 0.965177 19.6159L4.92256 15.6585C5.14361 15.4375 5.14361 15.0802 4.92256 14.8591C4.70151 14.6381 4.34422 14.6381 4.12317 14.8591L0.165786 18.8165C-0.055262 19.0376 -0.055262 19.3949 0.165786 19.6159C0.276027 19.7262 0.420755 19.7816 0.565482 19.7816Z" fill="white"/>
</svg>
