<svg width="190" height="190" viewBox="0 0 190 190" fill="none" xmlns="http://www.w3.org/2000/svg">
<g filter="url(#filter0_d)">
<circle cx="95" cy="83" r="65" fill="white"/>
</g>
<g opacity="0.1" filter="url(#filter1_d)">
<circle cx="95" cy="83" r="57" fill="#34B2FF"/>
</g>
<g clip-path="url(#clip0)">
<path d="M123.45 104.083L68.5518 104.085C66.9879 104.085 65.72 102.817 65.7198 101.253L65.7188 64.2125C65.7188 62.6485 66.9865 61.3805 68.5506 61.3805L123.449 61.3789C125.013 61.3789 126.281 62.6467 126.281 64.2106L126.282 101.251C126.282 102.815 125.014 104.083 123.45 104.083Z" fill="#34B2FF"/>
<path d="M126.282 101.236C126.282 102.808 125.022 104.083 123.466 104.083H119.24C120.797 104.083 122.057 102.808 122.057 101.236L122.056 64.2259C122.056 62.6557 120.8 61.3831 119.246 61.3789H123.464C125.021 61.3789 126.281 62.653 126.281 64.2259L126.282 101.236Z" fill="#34B2FF"/>
<path d="M122.056 99.2599C122.056 99.5652 121.811 99.8127 121.509 99.8127H117.831L70.4916 99.814C70.1896 99.814 69.9447 99.5666 69.9447 99.2613L69.9434 66.2035C69.9434 65.8982 70.1882 65.6508 70.4902 65.6508L117.829 65.6494H121.508C121.81 65.6494 122.055 65.8969 122.055 66.2022L122.056 99.2599Z" fill="#F3F3F3"/>
<path d="M121.51 99.8127H117.831L117.83 65.6494H121.509C121.811 65.6494 122.056 65.8969 122.056 66.2022L122.057 99.2599C122.057 99.5652 121.812 99.8127 121.51 99.8127Z" fill="#E4E4E4"/>
<path d="M127.336 110.72H64.6637C62.6402 110.72 61 109.079 61 107.056V104.235C61 103.923 61.2524 103.671 61.5637 103.671H130.436C130.748 103.671 131 103.923 131 104.235V107.056C131 109.079 129.36 110.72 127.336 110.72Z" fill="#34B2FF"/>
<path d="M130.437 103.671H126.212C126.523 103.671 126.775 103.923 126.775 104.235V107.054C126.775 109.078 125.136 110.719 123.113 110.719H127.339C129.361 110.72 131.001 109.079 131.001 107.054V104.235C131.001 103.923 130.748 103.671 130.437 103.671Z" fill="#34B2FF"/>
<path d="M100.788 107.054H91.2124C90.2785 107.054 89.5215 106.297 89.5215 105.363V103.671H102.479V105.363C102.479 106.297 101.722 107.054 100.788 107.054Z" fill="#074ECE"/>
<path d="M112.565 94.1725C112.53 94.4309 112.446 94.8009 112.372 95.1017C112.302 95.3826 112.058 95.579 111.779 95.579H110.924C110.645 95.579 110.402 95.3826 110.332 95.1017C110.257 94.8009 110.173 94.4309 110.138 94.1725C110.112 93.98 110.001 93.8114 109.839 93.7144L109.049 93.2416C108.887 93.1447 108.691 93.1289 108.518 93.2016C108.284 93.2995 107.931 93.4098 107.642 93.4932C107.373 93.5706 107.088 93.4502 106.948 93.1995L106.521 92.433C106.382 92.182 106.424 91.8648 106.623 91.6619C106.837 91.4441 107.105 91.1835 107.304 91.0228C107.451 90.9034 107.536 90.7191 107.536 90.5249V89.5805C107.536 89.3862 107.451 89.202 107.304 89.0825C107.105 88.9218 106.837 88.6612 106.623 88.4435C106.424 88.2406 106.382 87.9234 106.521 87.6723L106.948 86.9059C107.088 86.6551 107.373 86.5347 107.642 86.6122C107.931 86.6956 108.284 86.8058 108.518 86.9038C108.691 86.9765 108.887 86.9607 109.049 86.8638L109.839 86.391C110.001 86.294 110.112 86.1254 110.138 85.9329C110.173 85.6745 110.257 85.3044 110.332 85.0037C110.402 84.7228 110.645 84.5264 110.924 84.5264H111.779C112.058 84.5264 112.302 84.7228 112.372 85.0037C112.446 85.3044 112.53 85.6745 112.565 85.9329C112.591 86.1254 112.703 86.294 112.865 86.391L113.655 86.8638C113.817 86.9607 114.013 86.9764 114.186 86.9038C114.42 86.8058 114.772 86.6956 115.062 86.6122C115.33 86.5347 115.615 86.6551 115.755 86.9059L116.182 87.6723C116.322 87.9234 116.28 88.2406 116.08 88.4435C115.866 88.6612 115.598 88.9218 115.4 89.0825C115.252 89.202 115.167 89.3862 115.167 89.5805V90.5249C115.167 90.7191 115.252 90.9034 115.4 91.0228C115.598 91.1835 115.866 91.4442 116.08 91.6619C116.28 91.8648 116.322 92.1819 116.182 92.433L115.755 93.1995C115.615 93.4502 115.33 93.5706 115.062 93.4932C114.772 93.4098 114.42 93.2996 114.186 93.2016C114.013 93.1289 113.817 93.1447 113.655 93.2416L112.865 93.7144C112.703 93.8114 112.591 93.9799 112.565 94.1725ZM113.457 90.0527C113.457 88.8476 112.514 87.8707 111.352 87.8707C110.189 87.8707 109.247 88.8476 109.247 90.0527C109.247 91.2578 110.189 92.2347 111.352 92.2347C112.514 92.2347 113.457 91.2578 113.457 90.0527Z" fill="#34B2FF"/>
<path d="M94.4401 86.3865C94.3616 86.9431 94.1743 87.7403 94.007 88.3881C93.8507 88.9932 93.3065 89.4163 92.6821 89.4163H90.7701C90.1457 89.4163 89.6016 88.9932 89.4453 88.3881C89.278 87.7403 89.0907 86.9431 89.0122 86.3865C88.9538 85.9718 88.7049 85.6087 88.3423 85.3997L86.5756 84.3812C86.2134 84.1725 85.7752 84.1386 85.3877 84.295C84.8647 84.5061 84.0762 84.7435 83.4292 84.9232C82.8283 85.09 82.1908 84.8306 81.8784 84.2905L80.9236 82.6394C80.611 82.0987 80.7053 81.4154 81.1514 80.9783C81.6301 80.5092 82.2288 79.9479 82.6727 79.6017C83.0026 79.3444 83.1926 78.9475 83.1926 78.529V76.4947C83.1926 76.0763 83.0026 75.6794 82.6727 75.4221C82.2288 75.0759 81.6302 74.5144 81.1514 74.0454C80.7053 73.6083 80.611 72.9252 80.9236 72.3843L81.8784 70.7333C82.1908 70.1931 82.8281 69.9338 83.4292 70.1005C84.0762 70.2802 84.8647 70.5175 85.3877 70.7288C85.7752 70.8853 86.2134 70.8513 86.5756 70.6425L88.3423 69.6241C88.7049 69.415 88.9538 69.0519 89.0122 68.6372C89.0907 68.0807 89.278 67.2835 89.4453 66.6357C89.6016 66.0306 90.1457 65.6074 90.7701 65.6074H92.6821C93.3065 65.6074 93.8507 66.0306 94.007 66.6357C94.1743 67.2835 94.3616 68.0807 94.4401 68.6372C94.4985 69.0519 94.7474 69.415 95.11 69.6241L96.8767 70.6425C97.2388 70.8513 97.677 70.8852 98.0646 70.7288C98.5876 70.5177 99.376 70.2802 100.023 70.1005C100.624 69.9338 101.262 70.1931 101.574 70.7333L102.529 72.3843C102.841 72.925 102.747 73.6083 102.301 74.0454C101.822 74.5145 101.224 75.0759 100.78 75.4221C100.45 75.6794 100.26 76.0763 100.26 76.4947V78.529C100.26 78.9475 100.45 79.3444 100.78 79.6017C101.224 79.9479 101.822 80.5094 102.301 80.9783C102.747 81.4154 102.841 82.0986 102.529 82.6394L101.574 84.2905C101.262 84.8306 100.624 85.09 100.023 84.9232C99.376 84.7435 98.5876 84.5061 98.0646 84.295C97.677 84.1384 97.2388 84.1725 96.8767 84.3812L95.11 85.3997C94.7473 85.6087 94.4985 85.9718 94.4401 86.3865ZM96.4337 77.5119C96.4337 74.9161 94.3261 72.8117 91.7261 72.8117C89.1261 72.8117 87.0184 74.9161 87.0184 77.5119C87.0184 80.1078 89.1261 82.2122 91.7261 82.2122C94.3261 82.2122 96.4337 80.1078 96.4337 77.5119Z" fill="#34B2FF"/>
</g>
<defs>
<filter id="filter0_d" x="0" y="0" width="190" height="190" filterUnits="userSpaceOnUse" color-interpolation-filters="sRGB">
<feFlood flood-opacity="0" result="BackgroundImageFix"/>
<feColorMatrix in="SourceAlpha" type="matrix" values="0 0 0 0 0 0 0 0 0 0 0 0 0 0 0 0 0 0 127 0"/>
<feOffset dy="12"/>
<feGaussianBlur stdDeviation="15"/>
<feColorMatrix type="matrix" values="0 0 0 0 0 0 0 0 0 0 0 0 0 0 0 0 0 0 0.08 0"/>
<feBlend mode="normal" in2="BackgroundImageFix" result="effect1_dropShadow"/>
<feBlend mode="normal" in="SourceGraphic" in2="effect1_dropShadow" result="shape"/>
</filter>
<filter id="filter1_d" x="8" y="0" width="174" height="174" filterUnits="userSpaceOnUse" color-interpolation-filters="sRGB">
<feFlood flood-opacity="0" result="BackgroundImageFix"/>
<feColorMatrix in="SourceAlpha" type="matrix" values="0 0 0 0 0 0 0 0 0 0 0 0 0 0 0 0 0 0 127 0"/>
<feOffset dy="4"/>
<feGaussianBlur stdDeviation="15"/>
<feColorMatrix type="matrix" values="0 0 0 0 0 0 0 0 0 0 0 0 0 0 0 0 0 0 0.06 0"/>
<feBlend mode="normal" in2="BackgroundImageFix" result="effect1_dropShadow"/>
<feBlend mode="normal" in="SourceGraphic" in2="effect1_dropShadow" result="shape"/>
</filter>
<clipPath id="clip0">
<rect width="70" height="70" fill="white" transform="translate(61 44)"/>
</clipPath>
</defs>
</svg>
