<svg width="52" height="52" viewBox="26 15 52 52" fill="none" xmlns="http://www.w3.org/2000/svg">
<g opacity="0.3" filter="url(#filter0_d)">
<circle cx="52" cy="40" r="22" fill="white"/>
</g>
<path d="M64 33.2493C63.1447 33.6308 62.2333 33.8836 61.2831 34.0064C62.2606 33.413 63.0067 32.4805 63.3574 31.3566C62.4461 31.9091 61.4398 32.2993 60.3674 32.5171C59.5021 31.5802 58.2687 31 56.9232 31C54.3127 31 52.2111 33.1543 52.2111 35.7953C52.2111 36.1753 52.2427 36.5407 52.3203 36.8885C48.4002 36.6942 44.9316 34.7839 42.6014 31.874C42.1946 32.5916 41.9559 33.413 41.9559 34.2972C41.9559 35.9575 42.7969 37.4293 44.0504 38.2814C43.2928 38.2668 42.5496 38.0432 41.92 37.6909C41.92 37.7055 41.92 37.7245 41.92 37.7435C41.92 40.0732 43.5544 42.0083 45.6977 42.4541C45.3139 42.5608 44.8956 42.6119 44.4615 42.6119C44.1596 42.6119 43.8549 42.5944 43.5688 42.5301C44.1797 44.4286 45.9134 45.8244 47.9748 45.8697C46.3705 47.1456 44.3336 47.9144 42.1284 47.9144C41.7418 47.9144 41.3709 47.8968 41 47.8486C43.0887 49.2181 45.5641 50 48.2335 50C56.9102 50 61.654 42.6923 61.654 36.358C61.654 36.1461 61.6468 35.9415 61.6367 35.7383C62.5726 35.0631 63.3589 34.2198 64 33.2493Z" fill="white"/>
<defs>
<filter id="filter0_d" x="0" y="0" width="104" height="104" filterUnits="userSpaceOnUse" color-interpolation-filters="sRGB">
<feFlood flood-opacity="0" result="BackgroundImageFix"/>
<feColorMatrix in="SourceAlpha" type="matrix" values="0 0 0 0 0 0 0 0 0 0 0 0 0 0 0 0 0 0 127 0"/>
<feOffset dy="12"/>
<feGaussianBlur stdDeviation="15"/>
<feColorMatrix type="matrix" values="0 0 0 0 0 0 0 0 0 0 0 0 0 0 0 0 0 0 0.08 0"/>
<feBlend mode="normal" in2="BackgroundImageFix" result="effect1_dropShadow"/>
<feBlend mode="normal" in="SourceGraphic" in2="effect1_dropShadow" result="shape"/>
</filter>
</defs>
</svg>
