<svg width="52" height="52" viewBox="26 15 52 52" fill="none" xmlns="http://www.w3.org/2000/svg">
<g opacity="0.3" filter="url(#filter0_d)">
<circle cx="52" cy="40" r="22" fill="white"/>
</g>
<path d="M62.9492 35.8812C62.9023 34.8183 62.7304 34.0876 62.4842 33.4544C62.2302 32.7823 61.8394 32.1806 61.3274 31.6803C60.8272 31.1723 60.2215 30.7776 59.5572 30.5275C58.9203 30.2813 58.1934 30.1094 57.1306 30.0626C56.0597 30.0118 55.7198 30 53.0039 30C50.288 30 49.948 30.0118 48.8812 30.0586C47.8183 30.1055 47.0876 30.2775 46.4546 30.5236C45.7823 30.7776 45.1806 31.1684 44.6803 31.6803C44.1723 32.1806 43.7777 32.7863 43.5275 33.4506C43.2813 34.0876 43.1094 34.8143 43.0626 35.8772C43.0118 36.948 43 37.288 43 40.0039C43 42.7198 43.0118 43.0597 43.0586 44.1266C43.1055 45.1895 43.2775 45.9202 43.5237 46.5534C43.7777 47.2255 44.1723 47.8272 44.6803 48.3274C45.1806 48.8355 45.7863 49.2302 46.4506 49.4802C47.0876 49.7265 47.8143 49.8983 48.8774 49.9452C49.9441 49.9922 50.2842 50.0038 53.0001 50.0038C55.716 50.0038 56.0559 49.9922 57.1228 49.9452C58.1857 49.8983 58.9164 49.7265 59.5494 49.4802C60.8938 48.9605 61.9567 47.8976 62.4764 46.5534C62.7225 45.9164 62.8945 45.1895 62.9414 44.1266C62.9882 43.0597 63 42.7198 63 40.0039C63 37.288 62.996 36.948 62.9492 35.8812ZM61.1478 44.0484C61.1047 45.0254 60.9406 45.5529 60.8039 45.9046C60.4677 46.7761 59.7761 47.4677 58.9046 47.8039C58.5529 47.9406 58.0216 48.1047 57.0484 48.1476C55.9933 48.1946 55.6769 48.2062 53.0079 48.2062C50.3388 48.2062 50.0184 48.1946 48.9671 48.1476C47.9902 48.1047 47.4626 47.9406 47.1109 47.8039C46.6773 47.6436 46.2825 47.3896 45.9621 47.0574C45.63 46.733 45.376 46.3423 45.2157 45.9086C45.0789 45.5569 44.9148 45.0254 44.8719 44.0524C44.8249 42.9973 44.8133 42.6807 44.8133 40.0117C44.8133 37.3426 44.8249 37.0222 44.8719 35.9711C44.9148 34.9942 45.0789 34.4666 45.2157 34.1149C45.376 33.6811 45.63 33.2865 45.9661 32.9659C46.2903 32.6338 46.6811 32.3798 47.1149 32.2196C47.4666 32.0829 47.9981 31.9188 48.9711 31.8757C50.0262 31.8289 50.3428 31.8171 53.0117 31.8171C55.6847 31.8171 56.0011 31.8289 57.0524 31.8757C58.0293 31.9188 58.5569 32.0829 58.9086 32.2196C59.3423 32.3798 59.737 32.6338 60.0574 32.9659C60.3896 33.2903 60.6436 33.6811 60.8039 34.1149C60.9406 34.4666 61.1047 34.998 61.1478 35.9711C61.1946 37.0262 61.2064 37.3426 61.2064 40.0117C61.2064 42.6807 61.1946 42.9933 61.1478 44.0484Z" fill="white"/>
<path d="M53.004 34.8652C50.167 34.8652 47.8652 37.1669 47.8652 40.004C47.8652 42.8411 50.167 45.1427 53.004 45.1427C55.8411 45.1427 58.1427 42.8411 58.1427 40.004C58.1427 37.1669 55.8411 34.8652 53.004 34.8652ZM53.004 43.3373C51.1635 43.3373 49.6706 41.8446 49.6706 40.004C49.6706 38.1633 51.1635 36.6706 53.004 36.6706C54.8446 36.6706 56.3373 38.1633 56.3373 40.004C56.3373 41.8446 54.8446 43.3373 53.004 43.3373Z" fill="white"/>
<path d="M59.5459 34.6625C59.5459 35.325 59.0088 35.8622 58.3461 35.8622C57.6837 35.8622 57.1465 35.325 57.1465 34.6625C57.1465 33.9999 57.6837 33.4629 58.3461 33.4629C59.0088 33.4629 59.5459 33.9999 59.5459 34.6625Z" fill="white"/>
<defs>
<filter id="filter0_d" x="0" y="0" width="104" height="104" filterUnits="userSpaceOnUse" color-interpolation-filters="sRGB">
<feFlood flood-opacity="0" result="BackgroundImageFix"/>
<feColorMatrix in="SourceAlpha" type="matrix" values="0 0 0 0 0 0 0 0 0 0 0 0 0 0 0 0 0 0 127 0"/>
<feOffset dy="12"/>
<feGaussianBlur stdDeviation="15"/>
<feColorMatrix type="matrix" values="0 0 0 0 0 0 0 0 0 0 0 0 0 0 0 0 0 0 0.08 0"/>
<feBlend mode="normal" in2="BackgroundImageFix" result="effect1_dropShadow"/>
<feBlend mode="normal" in="SourceGraphic" in2="effect1_dropShadow" result="shape"/>
</filter>
</defs>
</svg>
