<svg width="40" height="38" viewBox="0 0 40 38" fill="none" xmlns="http://www.w3.org/2000/svg">
<path d="M20 37C30.4934 37 39 28.9411 39 19C39 9.05887 30.4934 1 20 1C9.50659 1 1 9.05887 1 19C1 28.9411 9.50659 37 20 37Z" stroke="#34B2FF" stroke-width="2"/>
<path d="M35.0348 35.722C37.1672 35.722 38.8958 33.9934 38.8958 31.861C38.8958 29.7286 37.1672 28 35.0348 28C32.9025 28 31.1738 29.7286 31.1738 31.861C31.1738 33.9934 32.9025 35.722 35.0348 35.722Z" fill="white"/>
<path d="M10.2645 32.1124C10.6258 30.0109 9.21498 28.0144 7.11343 27.6531C5.01189 27.2919 3.01539 28.7026 2.65412 30.8042C2.29286 32.9057 3.70364 34.9022 5.80519 35.2635C7.90673 35.6248 9.90323 34.214 10.2645 32.1124Z" fill="white"/>
<path d="M10.5288 7.04413C10.8695 4.93916 9.43936 2.95652 7.33439 2.61578C5.22942 2.27503 3.24677 3.70522 2.90603 5.8102C2.56529 7.91517 3.99548 9.89781 6.10045 10.2386C8.20542 10.5793 10.1881 9.1491 10.5288 7.04413Z" fill="white"/>
<path d="M33.0348 9.722C35.1672 9.722 36.8958 7.99337 36.8958 5.861C36.8958 3.72863 35.1672 2 33.0348 2C30.9025 2 29.1738 3.72863 29.1738 5.861C29.1738 7.99337 30.9025 9.722 33.0348 9.722Z" fill="white"/>
<path d="M15.7101 8.74023L9.5332 14.7355V23.1691L15.7101 29.1644H24.4902L30.6671 23.1691L30.6671 14.7355L24.4902 8.74023H15.7101ZM15.1019 7.24023H25.0985L32.1671 14.101L32.1671 23.8036L25.0985 30.6644H15.1019L8.0332 23.8036V14.101L15.1019 7.24023Z" fill="#34B2FF"/>
<path d="M31.3577 15.6821C31.9155 15.6821 32.3677 15.2299 32.3677 14.6721C32.3677 14.1143 31.9155 13.6621 31.3577 13.6621C30.7998 13.6621 30.3477 14.1143 30.3477 14.6721C30.3477 15.2299 30.7998 15.6821 31.3577 15.6821Z" fill="white"/>
<path d="M9.48418 14.6447C9.57868 14.0949 9.20963 13.5727 8.65989 13.4782C8.11015 13.3837 7.58788 13.7527 7.49338 14.3025C7.39888 14.8522 7.76792 15.3745 8.31767 15.469C8.86741 15.5635 9.38967 15.1944 9.48418 14.6447Z" fill="white"/>
<path d="M9.48418 23.8727C9.57868 23.323 9.20963 22.8007 8.65989 22.7062C8.11015 22.6117 7.58788 22.9807 7.49338 23.5305C7.39888 24.0802 7.76792 24.6025 8.31767 24.697C8.86741 24.7915 9.38967 24.4224 9.48418 23.8727Z" fill="white"/>
<path d="M32.199 23.8727C32.2935 23.323 31.9245 22.8007 31.3747 22.7062C30.825 22.6117 30.3027 22.9807 30.2082 23.5305C30.1137 24.0802 30.4828 24.6025 31.0325 24.697C31.5823 24.7915 32.1045 24.4224 32.199 23.8727Z" fill="white"/>
<path d="M25.8103 30.2609C25.9049 29.7111 25.5358 29.1889 24.9861 29.0944C24.4363 28.9999 23.9141 29.3689 23.8195 29.9187C23.725 30.4684 24.0941 30.9907 24.6438 31.0852C25.1936 31.1797 25.7158 30.8106 25.8103 30.2609Z" fill="white"/>
<path d="M15.8728 30.2609C15.9674 29.7111 15.5983 29.1889 15.0486 29.0944C14.4988 28.9999 13.9766 29.3689 13.882 29.9187C13.7875 30.4684 14.1566 30.9907 14.7063 31.0852C15.2561 31.1797 15.7783 30.8106 15.8728 30.2609Z" fill="white"/>
<path d="M16.1359 7.75692C16.225 7.20628 15.8509 6.68764 15.3003 6.5985C14.7496 6.50937 14.231 6.88349 14.1419 7.43413C14.0527 7.98477 14.4269 8.50341 14.9775 8.59255C15.5281 8.68168 16.0468 8.30756 16.1359 7.75692Z" fill="white"/>
<path d="M24.969 8.99119C25.5268 8.99119 25.979 8.539 25.979 7.98119C25.979 7.42338 25.5268 6.97119 24.969 6.97119C24.4112 6.97119 23.959 7.42338 23.959 7.98119C23.959 8.539 24.4112 8.99119 24.969 8.99119Z" fill="white"/>
<path d="M19.5 25C23.0899 25 26 22.0899 26 18.5C26 14.9101 23.0899 12 19.5 12C15.9101 12 13 14.9101 13 18.5C13 22.0899 15.9101 25 19.5 25Z" fill="#34B2FF"/>
</svg>
